<?xml version="1.0" encoding="UTF-8"?>
<!DOCTYPE svg PUBLIC "-//W3C//DTD SVG 1.1//EN" "http://www.w3.org/Graphics/SVG/1.1/DTD/svg11.dtd">
<svg xmlns="http://www.w3.org/2000/svg" version="1.1" width="20px" height="20px" style="shape-rendering:geometricPrecision; text-rendering:geometricPrecision; image-rendering:optimizeQuality; fill-rule:evenodd; clip-rule:evenodd" xmlns:xlink="http://www.w3.org/1999/xlink">
<g><path style="opacity:0.884" fill="#ffb94e" d="M 4.5,-0.5 C 7.5,-0.5 10.5,-0.5 13.5,-0.5C 16.7555,1.6817 18.7555,4.6817 19.5,8.5C 19.5,9.16667 19.5,9.83333 19.5,10.5C 18.1667,15.1667 15.1667,18.1667 10.5,19.5C 9.83333,19.5 9.16667,19.5 8.5,19.5C 4.6817,18.7555 1.6817,16.7555 -0.5,13.5C -0.5,10.5 -0.5,7.5 -0.5,4.5C 1.16667,2.83333 2.83333,1.16667 4.5,-0.5 Z M 8.5,3.5 C 7.99762,5.0847 6.99762,5.5847 5.5,5C 6.24382,3.96141 7.24382,3.46141 8.5,3.5 Z"/></g>
</svg>
