<?xml version="1.0" encoding="UTF-8"?>
<!DOCTYPE svg PUBLIC "-//W3C//DTD SVG 1.1//EN" "http://www.w3.org/Graphics/SVG/1.1/DTD/svg11.dtd">
<svg xmlns="http://www.w3.org/2000/svg" version="1.1" width="21px" height="20px" style="shape-rendering:geometricPrecision; text-rendering:geometricPrecision; image-rendering:optimizeQuality; fill-rule:evenodd; clip-rule:evenodd" xmlns:xlink="http://www.w3.org/1999/xlink">
<g><path style="opacity:0.689" fill="#ffb94e" d="M 2.5,-0.5 C 3.16667,-0.5 3.83333,-0.5 4.5,-0.5C 5.83333,0.5 5.83333,1.5 4.5,2.5C 3.66175,2.84171 3.32842,3.50838 3.5,4.5C 2.59603,5.20895 2.26269,6.20895 2.5,7.5C 1.5,7.5 0.5,7.5 -0.5,7.5C -0.5,6.16667 -0.5,4.83333 -0.5,3.5C 0.488369,2.20498 1.48837,0.871651 2.5,-0.5 Z"/></g>
<g><path style="opacity:0.901" fill="#ffb94e" d="M 7.5,-0.5 C 8.83333,-0.5 10.1667,-0.5 11.5,-0.5C 11.5,1.5 12.5,2.5 14.5,2.5C 14.3284,3.49162 14.6618,4.15829 15.5,4.5C 15.1941,8.74727 15.8608,12.7473 17.5,16.5C 15.5,16.5 13.5,16.5 11.5,16.5C 11.5,17.5 11.5,18.5 11.5,19.5C 10.1667,19.5 8.83333,19.5 7.5,19.5C 7.5,18.5 7.5,17.5 7.5,16.5C 5.5,16.5 3.5,16.5 1.5,16.5C 3.13921,12.7473 3.80588,8.74727 3.5,4.5C 4.33825,4.15829 4.67158,3.49162 4.5,2.5C 6.5,2.5 7.5,1.5 7.5,-0.5 Z"/></g>
<g><path style="opacity:0.696" fill="#ffb94e" d="M 14.5,-0.5 C 15.1667,-0.5 15.8333,-0.5 16.5,-0.5C 18.9868,1.78027 19.6535,4.44694 18.5,7.5C 17.265,6.66023 16.265,5.66023 15.5,4.5C 15.6716,3.50838 15.3382,2.84171 14.5,2.5C 13.1667,1.5 13.1667,0.5 14.5,-0.5 Z"/></g>
</svg>
