<?xml version="1.0" encoding="UTF-8"?>
<!DOCTYPE svg PUBLIC "-//W3C//DTD SVG 1.1//EN" "http://www.w3.org/Graphics/SVG/1.1/DTD/svg11.dtd">
<svg xmlns="http://www.w3.org/2000/svg" version="1.1" width="18px" height="19px" style="shape-rendering:geometricPrecision; text-rendering:geometricPrecision; image-rendering:optimizeQuality; fill-rule:evenodd; clip-rule:evenodd" xmlns:xlink="http://www.w3.org/1999/xlink">
<g><path style="opacity:0.982" fill="#ffb84e" d="M -0.5,-0.5 C 2.16667,-0.5 4.83333,-0.5 7.5,-0.5C 7.5,1.83333 7.5,4.16667 7.5,6.5C 4.83333,6.5 2.16667,6.5 -0.5,6.5C -0.5,4.16667 -0.5,1.83333 -0.5,-0.5 Z"/></g>
<g><path style="opacity:0.989" fill="#ffb84e" d="M 9.5,-0.5 C 12.1667,-0.5 14.8333,-0.5 17.5,-0.5C 17.5,3.16667 17.5,6.83333 17.5,10.5C 14.8333,10.5 12.1667,10.5 9.5,10.5C 9.5,6.83333 9.5,3.16667 9.5,-0.5 Z"/></g>
<g><path style="opacity:0.989" fill="#ffb84e" d="M -0.5,7.5 C 2.16667,7.5 4.83333,7.5 7.5,7.5C 7.5,11.1667 7.5,14.8333 7.5,18.5C 4.83333,18.5 2.16667,18.5 -0.5,18.5C -0.5,14.8333 -0.5,11.1667 -0.5,7.5 Z"/></g>
<g><path style="opacity:0.982" fill="#ffb84e" d="M 17.5,11.5 C 17.5,13.8333 17.5,16.1667 17.5,18.5C 14.8333,18.5 12.1667,18.5 9.5,18.5C 9.5,16.1667 9.5,13.8333 9.5,11.5C 12.1667,11.5 14.8333,11.5 17.5,11.5 Z"/></g>
</svg>
