<?xml version="1.0" encoding="UTF-8"?>
<!DOCTYPE svg PUBLIC "-//W3C//DTD SVG 1.1//EN" "http://www.w3.org/Graphics/SVG/1.1/DTD/svg11.dtd">
<svg xmlns="http://www.w3.org/2000/svg" version="1.1" width="32px" height="15px" style="shape-rendering:geometricPrecision; text-rendering:geometricPrecision; image-rendering:optimizeQuality; fill-rule:evenodd; clip-rule:evenodd" xmlns:xlink="http://www.w3.org/1999/xlink">
<g><path style="opacity:0.791" fill="#ffb84e" d="M 5.5,-0.5 C 10.8333,-0.5 16.1667,-0.5 21.5,-0.5C 23.0251,1.03582 25.0251,2.03582 27.5,2.5C 28.3611,4.91064 29.6944,6.91064 31.5,8.5C 31.5,9.5 31.5,10.5 31.5,11.5C 29.3812,11.4677 28.0478,12.4677 27.5,14.5C 26.5,14.5 25.5,14.5 24.5,14.5C 24.0133,13.5266 23.5133,12.5266 23,11.5C 21.141,12.1115 19.141,12.1115 17,11.5C 14.7439,11.5466 13.2439,12.5466 12.5,14.5C 11.5,14.5 10.5,14.5 9.5,14.5C 8.59433,13.0351 7.26099,12.0351 5.5,11.5C 4.61432,10.675 4.28099,9.67504 4.5,8.5C 3.16667,8.5 1.83333,8.5 0.5,8.5C 0.420818,7.06953 0.754152,5.73619 1.5,4.5C 1.04311,3.70245 0.376442,3.36912 -0.5,3.5C -0.5,2.83333 -0.5,2.16667 -0.5,1.5C 2.08209,1.97461 4.08209,1.30794 5.5,-0.5 Z M 23.5,4.5 C 25.9828,4.72998 26.4828,5.39665 25,6.5C 23.9701,6.16389 23.4701,5.49722 23.5,4.5 Z"/></g>
</svg>
