<?xml version="1.0" encoding="UTF-8"?>
<!DOCTYPE svg PUBLIC "-//W3C//DTD SVG 1.1//EN" "http://www.w3.org/Graphics/SVG/1.1/DTD/svg11.dtd">
<svg xmlns="http://www.w3.org/2000/svg" version="1.1" width="21px" height="21px" style="shape-rendering:geometricPrecision; text-rendering:geometricPrecision; image-rendering:optimizeQuality; fill-rule:evenodd; clip-rule:evenodd" xmlns:xlink="http://www.w3.org/1999/xlink">
<g><path style="opacity:0.851" fill="#ffb94e" d="M 7.5,-0.5 C 9.16667,-0.5 10.8333,-0.5 12.5,-0.5C 14.5731,1.87004 17.2398,3.20337 20.5,3.5C 20.5,7.83333 20.5,12.1667 20.5,16.5C 17.5152,17.3257 14.8485,18.659 12.5,20.5C 10.8333,20.5 9.16667,20.5 7.5,20.5C 5.15146,18.659 2.48479,17.3257 -0.5,16.5C -0.5,12.1667 -0.5,7.83333 -0.5,3.5C 2.48479,2.67433 5.15146,1.341 7.5,-0.5 Z M 6.5,6.5 C 6.01328,7.47344 5.51328,8.47344 5,9.5C 4.27484,7.84254 4.77484,6.84254 6.5,6.5 Z"/></g>
</svg>
