<?xml version="1.0" encoding="UTF-8"?>
<!DOCTYPE svg PUBLIC "-//W3C//DTD SVG 1.1//EN" "http://www.w3.org/Graphics/SVG/1.1/DTD/svg11.dtd">
<svg xmlns="http://www.w3.org/2000/svg" version="1.1" width="19px" height="19px" style="shape-rendering:geometricPrecision; text-rendering:geometricPrecision; image-rendering:optimizeQuality; fill-rule:evenodd; clip-rule:evenodd" xmlns:xlink="http://www.w3.org/1999/xlink">
<g><path style="opacity:0.759" fill="#ffb94e" d="M -0.5,-0.5 C 2.16667,-0.5 4.83333,-0.5 7.5,-0.5C 6.08209,1.30794 4.08209,1.97461 1.5,1.5C 1.5,6.16667 1.5,10.8333 1.5,15.5C 3.19919,15.3398 4.86586,15.5065 6.5,16C 7.59809,16.7697 7.59809,17.603 6.5,18.5C 4.5,18.5 2.5,18.5 0.5,18.5C 0.5,17.8333 0.166667,17.5 -0.5,17.5C -0.5,11.5 -0.5,5.5 -0.5,-0.5 Z"/></g>
<g><path style="opacity:0.693" fill="#ffb94e" d="M 18.5,7.5 C 18.5,8.16667 18.5,8.83333 18.5,9.5C 16.5193,11.1436 14.5193,12.8103 12.5,14.5C 11.246,12.7408 11.5794,11.2408 13.5,10C 1.5,9 1.5,8 13.5,7C 11.5794,5.7592 11.246,4.2592 12.5,2.5C 14.5193,4.18973 16.5193,5.85639 18.5,7.5 Z"/></g>
</svg>
